<svg width="23" height="14" viewBox="0 0 23 14" fill="none" xmlns="http://www.w3.org/2000/svg">
<path d="M5.5 14C4.66667 14 3.95833 13.7083 3.375 13.125C2.79167 12.5417 2.5 11.8333 2.5 11H0.5V2C0.5 1.45 0.695833 0.979167 1.0875 0.5875C1.47917 0.195833 1.95 0 2.5 0H16.5L22.5 6V11H20.5C20.5 11.8333 20.2083 12.5417 19.625 13.125C19.0417 13.7083 18.3333 14 17.5 14C16.6667 14 15.9583 13.7083 15.375 13.125C14.7917 12.5417 14.5 11.8333 14.5 11H8.5C8.5 11.8333 8.20833 12.5417 7.625 13.125C7.04167 13.7083 6.33333 14 5.5 14ZM14.5 5H18.5L15.5 2H14.5V5ZM8.5 5H12.5V2H8.5V5ZM2.5 5H6.5V2H2.5V5ZM5.5 12.25C5.85 12.25 6.14583 12.1292 6.3875 11.8875C6.62917 11.6458 6.75 11.35 6.75 11C6.75 10.65 6.62917 10.3542 6.3875 10.1125C6.14583 9.87083 5.85 9.75 5.5 9.75C5.15 9.75 4.85417 9.87083 4.6125 10.1125C4.37083 10.3542 4.25 10.65 4.25 11C4.25 11.35 4.37083 11.6458 4.6125 11.8875C4.85417 12.1292 5.15 12.25 5.5 12.25ZM17.5 12.25C17.85 12.25 18.1458 12.1292 18.3875 11.8875C18.6292 11.6458 18.75 11.35 18.75 11C18.75 10.65 18.6292 10.3542 18.3875 10.1125C18.1458 9.87083 17.85 9.75 17.5 9.75C17.15 9.75 16.8542 9.87083 16.6125 10.1125C16.3708 10.3542 16.25 10.65 16.25 11C16.25 11.35 16.3708 11.6458 16.6125 11.8875C16.8542 12.1292 17.15 12.25 17.5 12.25ZM2.5 9H3.3C3.58333 8.7 3.90833 8.45833 4.275 8.275C4.64167 8.09167 5.05 8 5.5 8C5.95 8 6.35833 8.09167 6.725 8.275C7.09167 8.45833 7.41667 8.7 7.7 9H15.3C15.5833 8.7 15.9083 8.45833 16.275 8.275C16.6417 8.09167 17.05 8 17.5 8C17.95 8 18.3583 8.09167 18.725 8.275C19.0917 8.45833 19.4167 8.7 19.7 9H20.5V7H2.5V9Z" fill="#1D4ED8"/>
</svg>
