<svg width="88" height="92" viewBox="0 0 88 92" fill="none" xmlns="http://www.w3.org/2000/svg">
<g clip-path="url(#clip0_227_773)">
<path d="M13.3086 7.5L87.3404 8.5V92H13.3086V7.5Z" fill="#FF6A00"/>
<path d="M7.90234 0H63.2182L87.341 8.5H13.3091L7.90234 0Z" fill="url(#paint0_linear_227_773)"/>
<path d="M7.90248 0L13.3093 2.5V9.5H0.832031L7.90248 0Z" fill="url(#paint1_linear_227_773)"/>
<path d="M42.6089 28.091C41.9416 28.091 41.3436 27.9827 40.8149 27.766C40.2862 27.5493 39.8616 27.2287 39.5409 26.804C39.2289 26.3793 39.0642 25.868 39.0469 25.27H41.4129C41.4476 25.608 41.5646 25.868 41.7639 26.05C41.9632 26.2233 42.2232 26.31 42.5439 26.31C42.8732 26.31 43.1332 26.2363 43.3239 26.089C43.5146 25.933 43.6099 25.7207 43.6099 25.452C43.6099 25.2267 43.5319 25.0403 43.3759 24.893C43.2286 24.7457 43.0422 24.6243 42.8169 24.529C42.6002 24.4337 42.2882 24.3253 41.8809 24.204C41.2916 24.022 40.8106 23.84 40.4379 23.658C40.0652 23.476 39.7446 23.2073 39.4759 22.852C39.2072 22.4967 39.0729 22.033 39.0729 21.461C39.0729 20.6117 39.3806 19.9487 39.9959 19.472C40.6112 18.9867 41.4129 18.744 42.4009 18.744C43.4062 18.744 44.2166 18.9867 44.8319 19.472C45.4472 19.9487 45.7766 20.616 45.8199 21.474H43.4149C43.3976 21.1793 43.2892 20.9497 43.0899 20.785C42.8906 20.6117 42.6349 20.525 42.3229 20.525C42.0542 20.525 41.8376 20.5987 41.6729 20.746C41.5082 20.8847 41.4259 21.0883 41.4259 21.357C41.4259 21.6517 41.5646 21.8813 41.8419 22.046C42.1192 22.2107 42.5526 22.3883 43.1419 22.579C43.7312 22.7783 44.2079 22.969 44.5719 23.151C44.9446 23.333 45.2652 23.5973 45.5339 23.944C45.8026 24.2907 45.9369 24.737 45.9369 25.283C45.9369 25.803 45.8026 26.2753 45.5339 26.7C45.2739 27.1247 44.8926 27.4627 44.3899 27.714C43.8872 27.9653 43.2936 28.091 42.6089 28.091ZM49.5279 20.655V22.501H52.5049V24.217H49.5279V26.219H52.8949V28H47.3049V18.874H52.8949V20.655H49.5279ZM56.5612 26.284H59.4732V28H54.3382V18.874H56.5612V26.284ZM62.7565 26.284H65.6685V28H60.5335V18.874H62.7565V26.284Z" fill="white"/>
</g>
<defs>
<linearGradient id="paint0_linear_227_773" x1="50.741" y1="4" x2="2.24869" y2="-35.5219" gradientUnits="userSpaceOnUse">
<stop stop-color="#FF6A00"/>
<stop offset="1" stop-color="#FF7918"/>
</linearGradient>
<linearGradient id="paint1_linear_227_773" x1="15.3888" y1="1.5" x2="5.93394" y2="7.79181" gradientUnits="userSpaceOnUse">
<stop stop-color="#FF7715"/>
<stop offset="0.415" stop-color="#FF6A00"/>
<stop offset="1" stop-color="#E36104"/>
</linearGradient>
<clipPath id="clip0_227_773">
<rect width="88" height="92" fill="white"/>
</clipPath>
</defs>
</svg>
