<svg width="20" height="18" viewBox="0 0 20 18" fill="none" xmlns="http://www.w3.org/2000/svg">
<path d="M10.1901 18L8.76778 16.7248C7.11655 15.2371 5.75143 13.9537 4.67241 12.8747C3.59339 11.7956 2.73508 10.827 2.09748 9.96867C1.45988 9.11035 1.01437 8.32153 0.760968 7.60218C0.507562 6.88283 0.380859 6.14714 0.380859 5.3951C0.380859 3.85831 0.895846 2.57493 1.92582 1.54496C2.95579 0.514986 4.23917 0 5.77595 0C6.62609 0 7.43535 0.179837 8.20375 0.53951C8.97214 0.899183 9.63426 1.40599 10.1901 2.05995C10.746 1.40599 11.4081 0.899183 12.1765 0.53951C12.9449 0.179837 13.7542 0 14.6043 0C16.1411 0 17.4245 0.514986 18.4544 1.54496C19.4844 2.57493 19.9994 3.85831 19.9994 5.3951C19.9994 6.14714 19.8727 6.88283 19.6193 7.60218C19.3659 8.32153 18.9204 9.11035 18.2828 9.96867C17.6452 10.827 16.7869 11.7956 15.7078 12.8747C14.6288 13.9537 13.2637 15.2371 11.6125 16.7248L10.1901 18ZM10.1901 15.3515C11.7596 13.9455 13.0512 12.7398 14.0648 11.7343C15.0784 10.7289 15.8795 9.85422 16.4681 9.11035C17.0566 8.36648 17.4653 7.70436 17.6942 7.12398C17.9231 6.5436 18.0375 5.9673 18.0375 5.3951C18.0375 4.41417 17.7106 3.59673 17.0566 2.94278C16.4027 2.28883 15.5852 1.96185 14.6043 1.96185C13.8359 1.96185 13.1247 2.17847 12.4708 2.61172C11.8168 3.04496 11.3672 3.59673 11.122 4.26703H9.25824C9.01301 3.59673 8.56342 3.04496 7.90947 2.61172C7.25552 2.17847 6.54435 1.96185 5.77595 1.96185C4.79503 1.96185 3.97759 2.28883 3.32364 2.94278C2.66969 3.59673 2.34271 4.41417 2.34271 5.3951C2.34271 5.9673 2.45715 6.5436 2.68604 7.12398C2.91492 7.70436 3.32364 8.36648 3.91219 9.11035C4.50075 9.85422 5.30184 10.7289 6.31546 11.7343C7.32909 12.7398 8.62064 13.9455 10.1901 15.3515Z" fill="#FF0000"/>
</svg>
