<svg width="27" height="24" viewBox="0 0 27 24" fill="none" xmlns="http://www.w3.org/2000/svg">
<path d="M23.6494 2.94496C23.063 2.32835 22.3667 1.83921 21.6003 1.50549C20.834 1.17177 20.0126 1 19.1831 1C18.3535 1 17.5321 1.17177 16.7658 1.50549C15.9994 1.83921 15.3032 2.32835 14.7167 2.94496L13.4997 4.22404L12.2826 2.94496C11.0981 1.70004 9.49153 1.00065 7.81633 1.00065C6.14114 1.00065 4.53455 1.70004 3.35001 2.94496C2.16547 4.18988 1.5 5.87836 1.5 7.63895C1.5 9.39954 2.16547 11.088 3.35001 12.3329L4.56705 13.612L13.4997 23L22.4323 13.612L23.6494 12.3329C24.2361 11.7166 24.7015 10.9849 25.019 10.1794C25.3366 9.37403 25.5 8.51076 25.5 7.63895C25.5 6.76714 25.3366 5.90387 25.019 5.09846C24.7015 4.29305 24.2361 3.56128 23.6494 2.94496Z" fill="#DD1C1C" stroke="#DD1C1C" stroke-width="2" stroke-linejoin="round"/>
</svg>
