<svg width="72" height="72" viewBox="0 0 72 72" fill="none" xmlns="http://www.w3.org/2000/svg">
<rect width="72" height="72" rx="36" fill="#FF8700"/>
<g clip-path="url(#clip0_462_789)">
<path fill-rule="evenodd" clip-rule="evenodd" d="M38.9796 23.9968C37.3897 22.2208 34.6091 22.2208 33.0191 23.9968L32.0848 25.0405C31.8147 25.3422 31.4221 25.5048 31.0178 25.4825L29.6191 25.4051C27.239 25.2736 25.2728 27.2397 25.4044 29.6198L25.4817 31.0185C25.5041 31.4228 25.3415 31.8154 25.0398 32.0855L23.9961 33.0199C22.2201 34.6098 22.2201 37.3904 23.9961 38.9804L25.0398 39.9147C25.3415 40.1848 25.5041 40.5774 25.4817 40.9817L25.4044 42.3804C25.2728 44.7605 27.239 46.7267 29.6191 46.5951L31.0178 46.5177C31.4221 46.4954 31.8147 46.658 32.0848 46.9597L33.0191 48.0034C34.6091 49.7794 37.3897 49.7794 38.9796 48.0034L39.914 46.9597C40.1841 46.658 40.5766 46.4954 40.981 46.5177L42.3796 46.5951C44.7597 46.7267 46.7259 44.7605 46.5943 42.3804L46.517 40.9817C46.4947 40.5774 46.6573 40.1848 46.959 39.9147L48.0027 38.9804C49.7787 37.3904 49.7787 34.6098 48.0027 33.0199L46.959 32.0855C46.6573 31.8154 46.4947 31.4228 46.517 31.0185L46.5943 29.6198C46.7259 27.2398 44.7597 25.2736 42.3796 25.4051L40.981 25.4825C40.5766 25.5048 40.1841 25.3422 39.914 25.0405L38.9796 23.9968ZM35.006 25.7755C35.5359 25.1835 36.4628 25.1835 36.9928 25.7755L37.9271 26.8192C38.7374 27.7243 39.9152 28.2121 41.1282 28.1451L42.5268 28.0677C43.3202 28.0239 43.9756 28.6793 43.9317 29.4726L43.8544 30.8713C43.7874 32.0843 44.2752 33.2621 45.1803 34.0724L46.224 35.0067C46.816 35.5367 46.816 36.4635 46.224 36.9935L45.1803 37.9279C44.2752 38.7382 43.7874 39.9159 43.8544 41.1289L43.9317 42.5276C43.9756 43.3209 43.3202 43.9763 42.5268 43.9325L41.1282 43.8551C39.9152 43.7881 38.7374 44.2759 37.9271 45.1811L36.9928 46.2247C36.4628 46.8168 35.5359 46.8168 35.006 46.2247L34.0716 45.1811C33.2613 44.2759 32.0836 43.7881 30.8706 43.8551L29.4719 43.9325C28.6785 43.9763 28.0232 43.3209 28.067 42.5276L28.1443 41.1289C28.2114 39.9159 27.7236 38.7382 26.8184 37.9279L25.7747 36.9935C25.1827 36.4635 25.1827 35.5367 25.7747 35.0067L26.8184 34.0724C27.7236 33.2621 28.2114 32.0843 28.1443 30.8713L28.067 29.4726C28.0232 28.6793 28.6785 28.0239 29.4719 28.0677L30.8706 28.1451C32.0836 28.2121 33.2613 27.7243 34.0716 26.8192L35.006 25.7755ZM32.666 30.6668C31.5615 30.6668 30.666 31.5622 30.666 32.6668V32.6801C30.666 33.7847 31.5615 34.6801 32.666 34.6801H32.6794C33.7839 34.6801 34.6794 33.7847 34.6794 32.6801V32.6668C34.6794 31.5622 33.7839 30.6668 32.6794 30.6668H32.666ZM37.3327 39.3334C37.3327 38.2289 38.2281 37.3334 39.3327 37.3334H39.346C40.4506 37.3334 41.346 38.2289 41.346 39.3334V39.3468C41.346 40.4513 40.4506 41.3468 39.346 41.3468H39.3327C38.2281 41.3468 37.3327 40.4513 37.3327 39.3468V39.3334ZM40.9422 32.9429C41.4629 32.4222 41.4629 31.578 40.9422 31.0573C40.4215 30.5366 39.5773 30.5366 39.0566 31.0573L31.0566 39.0573C30.5359 39.578 30.5359 40.4222 31.0566 40.9429C31.5773 41.4636 32.4215 41.4636 32.9422 40.9429L40.9422 32.9429Z" fill="white"/>
</g>
<defs>
<clipPath id="clip0_462_789">
<rect width="32" height="32" fill="white" transform="translate(20 20)"/>
</clipPath>
</defs>
</svg>
