<svg width="72" height="72" viewBox="0 0 72 72" fill="none" xmlns="http://www.w3.org/2000/svg">
<rect width="72" height="72" rx="36" fill="#FF8700"/>
<g clip-path="url(#clip0_462_777)">
<path d="M22.666 24V22.6667C21.9296 22.6667 21.3327 23.2636 21.3327 24H22.666ZM37.3327 24H38.666C38.666 23.2636 38.0691 22.6667 37.3327 22.6667V24ZM37.3327 32V30.6667C36.9791 30.6667 36.6399 30.8071 36.3899 31.0572C36.1398 31.3072 35.9993 31.6464 35.9993 32H37.3327ZM22.666 25.3333H37.3327V22.6667H22.666V25.3333ZM35.9993 24V45.3333H38.666V24H35.9993ZM23.9993 42.6667V24H21.3327V42.6667H23.9993ZM37.3327 33.3333H43.9993V30.6667H37.3327V33.3333ZM47.9993 37.3333V42.6667H50.666V37.3333H47.9993ZM38.666 45.3333L38.666 32H35.9993L35.9993 45.3333H38.666ZM44.9422 46.2761C44.4215 46.7968 43.5772 46.7968 43.0565 46.2761L41.1709 48.1618C42.733 49.7239 45.2657 49.7239 46.8278 48.1618L44.9422 46.2761ZM43.0565 44.3905C43.5772 43.8698 44.4215 43.8698 44.9422 44.3905L46.8278 42.5049C45.2657 40.9428 42.733 40.9428 41.1709 42.5049L43.0565 44.3905ZM28.9422 46.2761C28.4215 46.7968 27.5772 46.7968 27.0565 46.2761L25.1709 48.1618C26.733 49.7239 29.2657 49.7239 30.8278 48.1618L28.9422 46.2761ZM27.0565 44.3905C27.5772 43.8698 28.4215 43.8698 28.9422 44.3905L30.8278 42.5049C29.2657 40.9428 26.733 40.9428 25.1709 42.5049L27.0565 44.3905ZM44.9422 44.3905C45.2028 44.6511 45.3327 44.99 45.3327 45.3333H47.9993C47.9993 44.3117 47.6086 43.2857 46.8278 42.5049L44.9422 44.3905ZM45.3327 45.3333C45.3327 45.6766 45.2028 46.0155 44.9422 46.2761L46.8278 48.1618C47.6086 47.381 47.9993 46.355 47.9993 45.3333H45.3327ZM41.3327 44H37.3327V46.6667H41.3327V44ZM43.0565 46.2761C42.7959 46.0155 42.666 45.6766 42.666 45.3333H39.9993C39.9993 46.355 40.3901 47.381 41.1709 48.1618L43.0565 46.2761ZM42.666 45.3333C42.666 44.99 42.7959 44.6511 43.0565 44.3905L41.1709 42.5049C40.3901 43.2857 39.9993 44.3117 39.9993 45.3333H42.666ZM27.0565 46.2761C26.7959 46.0155 26.666 45.6766 26.666 45.3333H23.9993C23.9993 46.355 24.3901 47.381 25.1709 48.1618L27.0565 46.2761ZM26.666 45.3333C26.666 44.99 26.7959 44.6511 27.0565 44.3905L25.1709 42.5049C24.3901 43.2857 23.9993 44.3117 23.9993 45.3333H26.666ZM37.3327 44H30.666V46.6667H37.3327V44ZM28.9422 44.3905C29.2028 44.6511 29.3327 44.99 29.3327 45.3333H31.9993C31.9993 44.3117 31.6086 43.2857 30.8278 42.5049L28.9422 44.3905ZM29.3327 45.3333C29.3327 45.6766 29.2028 46.0155 28.9422 46.2761L30.8278 48.1618C31.6086 47.381 31.9993 46.355 31.9993 45.3333H29.3327ZM47.9993 42.6667C47.9993 43.403 47.4024 44 46.666 44V46.6667C48.8752 46.6667 50.666 44.8758 50.666 42.6667H47.9993ZM43.9993 33.3333C46.2085 33.3333 47.9993 35.1242 47.9993 37.3333H50.666C50.666 33.6514 47.6812 30.6667 43.9993 30.6667V33.3333ZM21.3327 42.6667C21.3327 44.8758 23.1235 46.6667 25.3327 46.6667V44C24.5963 44 23.9993 43.403 23.9993 42.6667H21.3327Z" fill="white"/>
<path d="M22.666 30.6667H26.666" stroke="white" stroke-width="2.66667" stroke-linecap="round" stroke-linejoin="round"/>
<path d="M22.666 36H29.3327" stroke="white" stroke-width="2.66667" stroke-linecap="round" stroke-linejoin="round"/>
</g>
<defs>
<clipPath id="clip0_462_777">
<rect width="32" height="32" fill="white" transform="translate(20 20)"/>
</clipPath>
</defs>
</svg>
