<svg width="17" height="16" viewBox="0 0 17 16" fill="none" xmlns="http://www.w3.org/2000/svg">
<path d="M8.5 13.9333L11.8 10.6333C12.4526 9.98067 12.897 9.14915 13.077 8.24392C13.2571 7.33869 13.1646 6.4004 12.8114 5.54771C12.4582 4.69501 11.86 3.96621 11.0926 3.45345C10.3252 2.94069 9.42296 2.66701 8.5 2.66701C7.57704 2.66701 6.67481 2.94069 5.90739 3.45345C5.13997 3.96621 4.54183 4.69501 4.18861 5.54771C3.83539 6.4004 3.74294 7.33869 3.92297 8.24392C4.103 9.14915 4.54741 9.98067 5.2 10.6333L8.5 13.9333ZM8.5 15.8187L4.25734 11.576C3.41823 10.7369 2.84679 9.66779 2.61529 8.5039C2.38378 7.34002 2.5026 6.13362 2.95673 5.03727C3.41086 3.94092 4.1799 3.00385 5.16659 2.34457C6.15328 1.68528 7.31332 1.33339 8.5 1.33339C9.68669 1.33339 10.8467 1.68528 11.8334 2.34457C12.8201 3.00385 13.5891 3.94092 14.0433 5.03727C14.4974 6.13362 14.6162 7.34002 14.3847 8.5039C14.1532 9.66779 13.5818 10.7369 12.7427 11.576L8.5 15.8187ZM8.5 8.66667C8.85362 8.66667 9.19276 8.52619 9.44281 8.27615C9.69286 8.0261 9.83334 7.68696 9.83334 7.33334C9.83334 6.97971 9.69286 6.64058 9.44281 6.39053C9.19276 6.14048 8.85362 6 8.5 6C8.14638 6 7.80724 6.14048 7.55719 6.39053C7.30715 6.64058 7.16667 6.97971 7.16667 7.33334C7.16667 7.68696 7.30715 8.0261 7.55719 8.27615C7.80724 8.52619 8.14638 8.66667 8.5 8.66667ZM8.5 10C7.79276 10 7.11448 9.71905 6.61438 9.21896C6.11429 8.71886 5.83334 8.04058 5.83334 7.33334C5.83334 6.62609 6.11429 5.94782 6.61438 5.44772C7.11448 4.94762 7.79276 4.66667 8.5 4.66667C9.20725 4.66667 9.88552 4.94762 10.3856 5.44772C10.8857 5.94782 11.1667 6.62609 11.1667 7.33334C11.1667 8.04058 10.8857 8.71886 10.3856 9.21896C9.88552 9.71905 9.20725 10 8.5 10Z" fill="#FF6A00"/>
</svg>
